<?xml version="1.0" encoding="utf-8"?>
<!-- Generator: Adobe Illustrator 22.1.0, SVG Export Plug-In . SVG Version: 6.00 Build 0)  -->
<svg version="1.1" id="Layer_1" xmlns="http://www.w3.org/2000/svg" xmlns:xlink="http://www.w3.org/1999/xlink" x="0px" y="0px"
	 viewBox="0 0 19 14" style="enable-background:new 0 0 19 14;" xml:space="preserve">
<style type="text/css">
	.st0{fill:#FFFFFF;}
</style>
<title>Signup</title>
<desc>Created with Sketch.</desc>
<g id="Page-1">
	<g id="IT-Security-Experts-FINAL" transform="translate(-395.000000, -2553.000000)">
		<g id="Swarm-Royale" transform="translate(-106.000000, 1940.000000)">
			<g id="Signup" transform="translate(502.000000, 614.000000)">
				<g id="Stroke-1">
					<path class="st0" d="M15.8,12.8H1.2c-1.1,0-2-0.9-2-2V1.3c0-1.1,0.9-2,2-2h14.6c1.1,0,2,0.9,2,2v9.4
						C17.8,11.8,16.9,12.8,15.8,12.8z M1.2,0.8C1,0.8,0.8,1,0.8,1.3v9.4c0,0.3,0.2,0.5,0.5,0.5h14.6c0.3,0,0.5-0.2,0.5-0.5V1.3
						c0-0.3-0.2-0.5-0.5-0.5H1.2z"/>
				</g>
				<g id="Stroke-3">
					<path class="st0" d="M8.5,8.8C8.3,8.8,8.2,8.7,8,8.6l-7.5-6C0.2,2.3,0.2,1.9,0.4,1.5c0.3-0.3,0.7-0.4,1.1-0.1l7,5.6l7-5.6
						c0.3-0.3,0.8-0.2,1.1,0.1c0.3,0.3,0.2,0.8-0.1,1.1L9,8.6C8.8,8.7,8.7,8.8,8.5,8.8z"/>
				</g>
			</g>
		</g>
	</g>
</g>
</svg>
