<?xml version="1.0" encoding="UTF-8"?>
<svg width="511px" height="558px" viewBox="0 0 511 558" version="1.1" xmlns="http://www.w3.org/2000/svg" xmlns:xlink="http://www.w3.org/1999/xlink">
    <!-- Generator: Sketch 52.5 (67469) - http://www.bohemiancoding.com/sketch -->
    <title>Artboard</title>
    <desc>Created with Sketch.</desc>
    <g id="Artboard" stroke="none" stroke-width="1" fill="none" fill-rule="evenodd">
        <g id="microengine-architecture" transform="translate(1.000000, 7.000000)">
            <ellipse id="Oval-Copy-5" stroke="#6D3AEC" stroke-width="2" fill="#DBCDF8" cx="146.5" cy="77" rx="45.5" ry="45"></ellipse>
            <ellipse id="Oval-Copy-6" stroke="#6D3AEC" stroke-width="2" fill="#DBCDF8" cx="362.5" cy="77" rx="45.5" ry="45"></ellipse>
            <g id="ETHEREUM-NODE" transform="translate(85.000000, 0.000000)" fill="#6D3AEC" font-family="InputSans-Regular, Input Sans" font-size="12" font-weight="normal">
                <text>
                    <tspan x="0.343636" y="14">ETHEREUM NODE</tspan>
                </text>
            </g>
            <g id="TRANSACTIONS" transform="translate(34.000000, 140.000000)" fill="#6D3AEC" font-family="InputSans-Regular, Input Sans" font-size="8" font-weight="normal">
                <text>
                    <tspan x="0.523636" y="9">TRANSACTIONS</tspan>
                </text>
            </g>
            <g id="EVENTS" transform="translate(155.000000, 210.000000)" fill="#6D3AEC" font-family="InputSans-Regular, Input Sans" font-size="8" font-weight="normal">
                <text>
                    <tspan x="0.352727" y="9">EVENTS</tspan>
                </text>
            </g>
            <g id="ARTIFACTS" transform="translate(402.000000, 141.000000)" fill="#6D3AEC" font-family="InputSans-Regular, Input Sans" font-size="8" font-weight="normal">
                <text>
                    <tspan x="0" y="9">ARTIFACTS</tspan>
                </text>
            </g>
            <g id="API-CALLS" transform="translate(322.000000, 210.000000)" fill="#6D3AEC" font-family="InputSans-Regular, Input Sans" font-size="8" font-weight="normal">
                <text>
                    <tspan x="0" y="9">API CALLS</tspan>
                </text>
            </g>
            <g id="IPFS" transform="translate(344.000000, 0.000000)" fill="#6D3AEC" font-family="InputSans-Regular, Input Sans" font-size="12" font-weight="normal">
                <text>
                    <tspan x="0.194545" y="14">IPFS</tspan>
                </text>
            </g>
            <g id="ethereum-white-copy-2" transform="translate(128.000000, 48.000000)" fill="#FFFFFF" stroke="#6D3AEC" stroke-width="2">
                <polygon id="Shape" points="18 39.6842105 36 29.2616121 18 0 0 29.2616121"></polygon>
                <polygon id="Shape" points="17.9951259 58 36 33.5789474 17.9951259 43.8130678 0 33.5789474"></polygon>
            </g>
            <g id="Group-18" stroke-linecap="round" stroke-linejoin="round" transform="translate(339.000000, 53.000000)" stroke="#6D3AEC">
                <polygon id="Stroke-1" stroke-width="2" fill="#FFFFFF" points="0 22 46 22 46 11 0 11"></polygon>
                <polyline id="Stroke-3" stroke-width="2" fill="#FFFFFF" points="0 10 12 0 34 0 46 10"></polyline>
                <path d="M29,17 C29,17.552 28.552,18 28,18 C27.448,18 27,17.552 27,17 C27,16.448 27.448,16 28,16 C28.552,16 29,16.448 29,17 Z" id="Stroke-4" stroke-width="1.5"></path>
                <path d="M34,17 C34,17.552 33.552,18 33,18 C32.448,18 32,17.552 32,17 C32,16.448 32.448,16 33,16 C33.552,16 34,16.448 34,17 Z" id="Stroke-5" stroke-width="1.5"></path>
                <path d="M39,17 C39,17.552 38.552,18 38,18 C37.448,18 37,17.552 37,17 C37,16.448 37.448,16 38,16 C38.552,16 39,16.448 39,17 Z" id="Stroke-6" stroke-width="1.5"></path>
                <path d="M8,17 C8,18.106 7.106,19 6,19 C4.896,19 4,18.106 4,17 C4,15.896 4.896,15 6,15 C7.106,15 8,15.896 8,17 Z" id="Stroke-7" stroke-width="2"></path>
                <polyline id="Stroke-8" stroke-width="2" fill="#FFFFFF" points="0 23 0 34 46 34 46 23"></polyline>
                <path d="M29,28 C29,28.552 28.552,29 28,29 C27.448,29 27,28.552 27,28 C27,27.448 27.448,27 28,27 C28.552,27 29,27.448 29,28 Z" id="Stroke-9" stroke-width="1.5"></path>
                <path d="M34,28 C34,28.552 33.552,29 33,29 C32.448,29 32,28.552 32,28 C32,27.448 32.448,27 33,27 C33.552,27 34,27.448 34,28 Z" id="Stroke-10" stroke-width="1.5"></path>
                <path d="M39,28 C39,28.552 38.552,29 38,29 C37.448,29 37,28.552 37,28 C37,27.448 37.448,27 38,27 C38.552,27 39,27.448 39,28 Z" id="Stroke-11" stroke-width="1.5"></path>
                <path d="M8,28 C8,29.106 7.106,30 6,30 C4.896,30 4,29.106 4,28 C4,26.896 4.896,26 6,26 C7.106,26 8,26.896 8,28 Z" id="Stroke-12" stroke-width="2"></path>
                <path d="M46,35 L46,42.3333333 C46,44.3573333 44.208,46 42,46 L4,46 C1.792,46 0,44.3573333 0,42.3333333 L0,35" id="Stroke-13" stroke-width="2" fill="#FFFFFF"></path>
                <path d="M29,41 C29,41.552 28.552,42 28,42 C27.448,42 27,41.552 27,41 C27,40.448 27.448,40 28,40 C28.552,40 29,40.448 29,41 Z" id="Stroke-14" stroke-width="1.5"></path>
                <path d="M34,41 C34,41.552 33.552,42 33,42 C32.448,42 32,41.552 32,41 C32,40.448 32.448,40 33,40 C33.552,40 34,40.448 34,41 Z" id="Stroke-15" stroke-width="1.5"></path>
                <path d="M39,41 C39,41.552 38.552,42 38,42 C37.448,42 37,41.552 37,41 C37,40.448 37.448,40 38,40 C38.552,40 39,40.448 39,41 Z" id="Stroke-16" stroke-width="1.5"></path>
                <path d="M8,40 C8,41.106 7.106,42 6,42 C4.896,42 4,41.106 4,40 C4,38.896 4.896,38 6,38 C7.106,38 8,38.896 8,40 Z" id="Stroke-17" stroke-width="2"></path>
            </g>
            <path d="M146.5,127 L146.5,172.944367" id="Line-2" stroke="#6D3AEC" stroke-width="1.5" stroke-linecap="square"></path>
            <path d="M230.5,191.055634 L230.5,237.000001" id="Line-2-Copy-3" stroke="#6D3AEC" stroke-width="1.5" stroke-linecap="square" transform="translate(230.500000, 214.027817) rotate(180.000000) translate(-230.500000, -214.027817) "></path>
            <path d="M362.5,127 L362.5,172.944367" id="Line-2-Copy-2" stroke="#6D3AEC" stroke-width="1.5" stroke-linecap="square"></path>
            <path d="M281.5,191.055634 L281.5,237.000001" id="Line-2-Copy-4" stroke="#6D3AEC" stroke-width="1.5" stroke-linecap="square" transform="translate(281.500000, 214.027817) rotate(180.000000) translate(-281.500000, -214.027817) "></path>
            <path d="M146.5,172.935901 L164,172.935901" id="Line-5" stroke="#6D3AEC" stroke-width="1.5" stroke-linecap="square"></path>
            <path d="M344.5,172.935901 L362,172.935901" id="Line-5-Copy" stroke="#6D3AEC" stroke-width="1.5" stroke-linecap="square"></path>
            <g id="Group-9" stroke-linecap="round" stroke-linejoin="round" transform="translate(123.000000, 140.000000)" stroke="#6D3AEC" stroke-width="1.5">
                <path d="M0,8.75040431 C0,9.99407008 1.12010068,11 2.50089896,11 C3.87989932,11 5,9.99407008 5,8.75040431 C5,7.5083558 3.87989932,6.49757412 2.50089896,6.49757412 C1.12010068,6.49757412 0,5.49487871 0,4.24959569 C0,3.00754717 1.12010068,2 2.50089896,2 C3.87989932,2 5,3.00754717 5,4.24959569" id="Stroke-3"></path>
                <path d="M3,11.074 L3,12.926" id="Stroke-5"></path>
                <path d="M3,0.072 L3,1.928" id="Stroke-7"></path>
            </g>
            <path d="M306,211 L300,217" id="Stroke-1" stroke="#6D3AEC" stroke-width="1.5" stroke-linecap="round" stroke-linejoin="round"></path>
            <path d="M309,217 L303,223" id="Stroke-2" stroke="#6D3AEC" stroke-width="1.5" stroke-linecap="round" stroke-linejoin="round"></path>
            <polyline id="Stroke-3" stroke="#6D3AEC" stroke-width="1.5" stroke-linecap="round" stroke-linejoin="round" points="306 214 306 211 303 211"></polyline>
            <polyline id="Stroke-4" stroke="#6D3AEC" stroke-width="1.5" stroke-linecap="round" stroke-linejoin="round" points="306 223 303 223 303 220"></polyline>
            <path d="M298,226 L311,226 C312.656854,226 314,224.656854 314,223 L314,210 C314,208.343146 312.656854,207 311,207 L298,207 C296.343146,207 295,208.343146 295,210 L295,223 C295,224.656854 296.343146,226 298,226 Z" id="Stroke-5" stroke="#6D3AEC" stroke-width="1.5" stroke-linecap="round" stroke-linejoin="round"></path>
            <path d="M203,226 L216,226 C217.656854,226 219,224.656854 219,223 L219,210 C219,208.343146 217.656854,207 216,207 L203,207 C201.343146,207 200,208.343146 200,210 L200,223 C200,224.656854 201.343146,226 203,226 Z" id="Stroke-5-Copy" stroke="#6D3AEC" stroke-width="1.5" stroke-linecap="round" stroke-linejoin="round"></path>
            <path d="M119,156 L132,156 C133.656854,156 135,154.656854 135,153 L135,140 C135,138.343146 133.656854,137 132,137 L119,137 C117.343146,137 116,138.343146 116,140 L116,153 C116,154.656854 117.343146,156 119,156 Z" id="Stroke-5-Copy-2" stroke="#6D3AEC" stroke-width="1.5" stroke-linecap="round" stroke-linejoin="round"></path>
            <g id="Group-7" transform="translate(374.000000, 138.000000)" stroke="#6D3AEC" stroke-width="1.5">
                <path d="M18,14.8695652 C18,16.5983478 16.5983478,18 14.8695652,18 L3.13043478,18 C1.40165217,18 0,16.5983478 0,14.8695652 L0,3.13043478 C0,1.40165217 1.40165217,0 3.13043478,0 L14.8695652,0 C16.5983478,0 18,1.40165217 18,3.13043478 L18,14.8695652 Z" id="Stroke-1" stroke-linecap="round" stroke-linejoin="round"></path>
                <path d="M11,9 C11,10.1048 10.1048,11 9,11 C7.8952,11 7,10.1048 7,9 C7,7.8952 7.8952,7 9,7 C10.1048,7 11,7.8952 11,9 Z" id="Stroke-3"></path>
                <path d="M13.6584979,8.06657143 L15,7.29857143 L13.4863774,4.70057143 L12.1457402,5.46771429 C11.6691653,5.05114286 11.114747,4.73142857 10.5127577,4.53085714 L10.5127577,3 L7.48551247,3 L7.48551247,4.53771429 C6.86708952,4.74257143 6.31872567,5.06314286 5.85512469,5.46857143 L4.5136226,4.70057143 L3,7.29857143 L4.33977224,8.06657143 C4.21608765,8.66742857 4.21176301,9.3 4.34150209,9.93342857 L3,10.7005714 L4.5136226,13.2985714 L5.85425977,12.5322857 C6.33083465,12.948 6.88438806,13.2668571 7.48551247,13.4682857 L7.48551247,15 L10.5127577,15 L10.5127577,13.4622857 C11.1320456,13.2574286 11.6812743,12.9368571 12.1448753,12.5314286 L13.4863774,13.2985714 L15,10.7005714 L13.6593628,9.93428571 C13.7839124,9.33257143 13.788237,8.7 13.6584979,8.06657143 Z" id="Stroke-5" stroke-linecap="round" stroke-linejoin="round"></path>
            </g>
            <rect id="Rectangle" stroke="#6D3AEC" stroke-width="2" fill="#FFFFFF" x="171" y="153" width="167" height="38" rx="4"></rect>
            <rect id="Rectangle-Copy-3" stroke="#6D3AEC" stroke-width="2" fill="#FFFFFF" x="0" y="246" width="509" height="298" rx="4"></rect>
            <path d="M445,335 L445,419.142483" id="Line-7" stroke="#6D3AEC" stroke-width="1.5" stroke-linecap="square"></path>
            <path d="M66,335 L66,419.142483" id="Line-7-Copy" stroke="#6D3AEC" stroke-width="1.5" stroke-linecap="square"></path>
            <path d="M85,352 L85,420.142483" id="Line-7-Copy-2" stroke="#6D3AEC" stroke-width="1.5" stroke-linecap="square"></path>
            <path d="M425,352 L425,420.142483" id="Line-7-Copy-3" stroke="#6D3AEC" stroke-width="1.5" stroke-linecap="square"></path>
            <g id="Group-2" transform="translate(194.000000, 162.000000)" fill="#6D3AEC">
                <g id="logo-purple-copy">
                    <g id="Group">
                        <path d="M2.27286585,5.54958228 L12.7493049,5.54958228 C14.3171341,5.54958228 15.5927561,6.87364557 15.5927561,8.50101266 C15.5927561,10.1283797 14.3171341,11.4527089 12.7493049,11.4527089 L7.08058537,11.4527089 C6.63420732,11.4527089 6.27106098,11.8296456 6.27106098,12.2927089 C6.27106098,12.756038 6.63420732,13.1329747 7.08058537,13.1329747 L12.7490488,13.1329747 C15.2096341,13.1329747 17.2115488,11.055038 17.2115488,8.50101266 C17.2115488,5.94698734 15.2096341,3.86905063 12.7490488,3.86905063 L2.27286585,3.86905063 C1.8264878,3.86905063 1.46334146,4.24598734 1.46334146,4.70958228 C1.46334146,5.17264557 1.8264878,5.54958228 2.27286585,5.54958228 Z" id="Shape"></path>
                        <path d="M12.7493049,0 L8.68631707,0 C8.23993902,0 7.87679268,0.376936709 7.87679268,0.840265823 C7.87679268,1.30359494 8.23993902,1.68053165 8.68631707,1.68053165 L12.7493049,1.68053165 C16.3725732,1.68053165 19.3202561,4.7401519 19.3202561,8.50127848 C19.3202561,12.2624051 16.3725732,15.3217595 12.7493049,15.3217595 L2.42780488,15.3217595 C1.98142683,15.3217595 1.61828049,15.6986962 1.61828049,16.1620253 C1.61828049,16.6253544 1.98117073,17.0022911 2.42780488,17.0022911 L12.7490488,17.0022911 C17.2650732,17.0022911 20.9390488,13.1885316 20.9390488,8.50127848 C20.9393049,3.81349367 17.2653293,0 12.7493049,0 Z" id="Shape"></path>
                        <path d="M8.05580488,8.50101266 C8.05580488,8.03768354 7.69265854,7.66074684 7.24628049,7.66074684 L5.27330488,7.66074684 C4.82692683,7.66074684 4.46378049,8.03768354 4.46378049,8.50101266 C4.46378049,8.96646835 4.82180488,9.34127848 5.11810976,9.34127848 L7.09082927,9.34127848 C7.65910976,9.34127848 8.05580488,8.99597468 8.05580488,8.50101266 Z" id="Shape"></path>
                        <path d="M5.49329268,19.1908101 L0.80952439,19.1908101 C0.363146341,19.1908101 0,19.5677468 0,20.0310759 C0,20.4941392 0.363146341,20.8710759 0.80952439,20.8710759 L5.49329268,20.8710759 C5.93967073,20.8710759 6.30281707,20.4941392 6.30281707,20.0310759 C6.30256098,19.5677468 5.93941463,19.1908101 5.49329268,19.1908101 Z" id="Shape"></path>
                    </g>
                </g>
                <g id="Group" transform="translate(33.000000, 6.000000)">
                    <path d="M13.0468437,0.077 C10.5060059,0.077 8.3799882,1.92475 8.3799882,4.459 C8.3799882,6.981 10.5057463,8.81625 13.0468437,8.81625 C15.5744425,8.81625 17.7134395,6.9935 17.7134395,4.459 C17.7134395,1.92475 15.5744425,0.077 13.0468437,0.077 Z M13.0468437,7.51775 C11.2707493,7.51775 9.90973451,6.16925 9.90973451,4.459 C9.90973451,2.74875 11.2707493,1.38775 13.0468437,1.38775 C14.8359174,1.38775 16.1709735,2.74875 16.1709735,4.459 C16.1709735,6.1695 14.8356578,7.51775 13.0468437,7.51775 Z" id="Shape" fill-rule="nonzero"></path>
                    <path d="M24.8175575,7.45525 L21.0582183,7.45525 L21.0582183,0.75125 C21.0582183,0.3765 20.7469735,0.077 20.332413,0.077 C19.9305723,0.077 19.6063481,0.3765 19.6063481,0.75125 L19.6063481,8.017 C19.6063481,8.3915 19.9305723,8.69125 20.332413,8.69125 L24.8175575,8.69125 C25.1677404,8.69125 25.4397876,8.41625 25.4397876,8.067 C25.4397876,7.7425 25.1674808,7.45525 24.8175575,7.45525 Z" id="Shape"></path>
                    <path d="M32.6415103,0.077 C32.23941,0.077 31.915705,0.3765 31.915705,0.75125 L31.915705,2.06775 C31.915705,2.79175 31.7342537,3.366 31.3710914,3.76575 C30.9562714,4.2275 30.3472802,4.44 29.5820177,4.44 C28.8302537,4.44 28.2207434,4.2275 27.8061829,3.76575 C27.4430206,3.36625 27.2615693,2.792 27.2615693,2.06775 L27.2615693,0.75125 C27.2615693,0.3765 26.9373451,0.077 26.535764,0.077 C26.1339233,0.077 25.8094395,0.3765 25.8094395,0.75125 L25.8094395,2.2675 C25.8094395,3.24125 26.0817463,4.06525 26.6263599,4.652 C27.1476106,5.22425 27.9152094,5.5825 28.8624425,5.70225 L28.8624425,8.142 C28.8624425,8.51675 29.1864071,8.81625 29.5882478,8.81625 C29.9768496,8.81625 30.3140531,8.51675 30.3140531,8.142 L30.3140531,5.7015 C31.2649204,5.58075 32.0304425,5.223 32.5503953,4.652 C33.0952684,4.06525 33.367056,3.24125 33.367056,2.2675 L33.367056,0.75125 C33.3675752,0.3765 33.043351,0.077 32.6415103,0.077 Z" id="Shape"></path>
                    <path d="M40.7829381,4.34675 C39.9919764,3.8725 39.0717404,3.6975 38.2421003,3.423 C37.5295339,3.18575 37.0365782,2.88625 37.0365782,2.33675 C37.0365782,1.65 37.6201298,1.338 38.6828791,1.338 C39.7845664,1.338 40.2256047,1.825 40.8345959,1.825 C41.2237168,1.825 41.5217227,1.53775 41.5217227,1.1755 C41.5217227,0.23925 39.3180885,0.077 38.7607552,0.077 C36.6474572,0.077 35.5068319,1.01325 35.5068319,2.3865 C35.5068319,3.36025 36.0249676,3.94725 36.7253333,4.32175 C37.5292743,4.746 38.4362714,4.9085 39.1623363,5.183 C39.8107847,5.43275 40.2772625,5.7575 40.2772625,6.3315 C40.2772625,7.00575 39.7845664,7.58 38.5660649,7.58 C37.2310088,7.58 36.751292,6.8685 36.168,6.8685 C35.792118,6.8685 35.4678938,7.1555 35.4678938,7.5425 C35.4678938,8.354 37.3221239,8.816 38.5920236,8.816 C40.4714336,8.816 41.8589263,7.867 41.8589263,6.219 C41.8589263,5.2955 41.3924484,4.70875 40.7829381,4.34675 Z" id="Shape"></path>
                    <path d="M54.8156932,0.077 C54.4135929,0.077 54.0893687,0.3765 54.0893687,0.75125 L54.0893687,5.59525 C54.0893687,6.25675 53.9084366,6.706 53.6228909,7.006 C53.2472684,7.3805 52.7286136,7.518 52.1969794,7.518 C51.6521062,7.518 51.211587,7.35575 50.9135811,7.0685 C50.5379587,6.70625 50.3173097,6.1195 50.3173097,5.3705 L50.3173097,0.75125 C50.3173097,0.3765 49.9933451,0.077 49.5912448,0.077 C49.1896637,0.077 48.8651799,0.3765 48.8651799,0.75125 L48.8651799,5.3705 C48.8651799,6.1195 48.6320708,6.70625 48.2559292,7.0685 C47.9579233,7.3555 47.5301239,7.518 46.972531,7.518 C46.4541357,7.518 45.9225015,7.3805 45.5598584,7.006 C45.2621121,6.70625 45.0801416,6.257 45.0801416,5.59525 L45.0801416,0.75125 C45.0801416,0.3765 44.7559174,0.077 44.3540767,0.077 C43.952236,0.077 43.6282714,0.3765 43.6282714,0.75125 L43.6282714,5.60775 C43.6282714,6.66875 43.952236,7.4305 44.4708909,7.92975 C45.1058407,8.5665 46.0393156,8.8035 46.9598112,8.8035 C47.4652271,8.8035 48.0098407,8.704 48.4895575,8.4665 C48.9173569,8.2295 49.3062183,7.87975 49.5912448,7.3555 C49.8635516,7.88 50.252413,8.2295 50.6799528,8.4665 C51.1596696,8.70375 51.7042832,8.8035 52.2099587,8.8035 C53.1434336,8.8035 54.0636696,8.5665 54.6988791,7.92975 C55.2175339,7.4305 55.5414985,6.66875 55.5414985,5.60775 L55.5414985,0.75125 C55.5412389,0.3765 55.2172743,0.077 54.8156932,0.077 Z" id="Shape"></path>
                    <path d="M87.0065605,0.951 C86.3718702,0.31425 85.4381357,0.077 84.5176401,0.077 C84.0122242,0.077 83.4676106,0.17675 82.9878938,0.414 C82.5606136,0.65125 82.171233,1.00075 81.8862065,1.525 C81.6138997,1.00075 81.2250383,0.651 80.7972389,0.414 C80.3175221,0.17675 79.7734277,0.077 79.2674926,0.077 C78.3342773,0.077 77.4137817,0.314 76.7785723,0.951 C76.2599174,1.45025 75.9359528,2.21175 75.9359528,3.273 L75.9359528,8.1295 C75.9359528,8.504 76.2599174,8.8035 76.6620177,8.8035 C77.0638584,8.8035 77.387823,8.504 77.387823,8.1295 L77.387823,3.2855 C77.387823,2.624 77.5692743,2.1745 77.8545605,1.87475 C78.2304425,1.50025 78.7490973,1.36275 79.280472,1.36275 C79.8253451,1.36275 80.2658643,1.525 80.5638702,1.81225 C80.9394926,2.17425 81.1601416,2.761 81.1601416,3.51025 L81.1601416,8.1295 C81.1601416,8.504 81.4846254,8.8035 81.8862065,8.8035 C82.2877876,8.8035 82.6122714,8.504 82.6122714,8.1295 L82.6122714,3.51025 C82.6122714,2.76125 82.8453805,2.1745 83.2215221,1.81225 C83.5197876,1.525 83.9473274,1.36275 84.5046608,1.36275 C85.0235752,1.36275 85.5546903,1.50025 85.9178525,1.87475 C86.2155988,2.17425 86.3975693,2.62375 86.3975693,3.2855 L86.3975693,8.1295 C86.3975693,8.504 86.7215339,8.8035 87.1233746,8.8035 C87.5252153,8.8035 87.8494395,8.504 87.8494395,8.1295 L87.8494395,3.273 C87.8494395,2.21175 87.5252153,1.45025 87.0065605,0.951 Z" id="Shape"></path>
                    <path d="M73.667941,3.08425 C73.6684602,2.0985 73.2663599,1.32375 72.6051917,0.812 C71.9832212,0.3375 71.283115,0.20025 70.5316106,0.20025 L67.524295,0.1995 C67.1224543,0.1995 66.7979705,0.49925 66.7979705,0.8865 L66.796413,8.152 C66.796413,8.52675 67.1203776,8.82625 67.5224779,8.82625 C67.9113392,8.82625 68.2482832,8.52675 68.2482832,8.1525 L68.2498407,1.42325 L70.3369204,1.42375 C70.8033982,1.42375 71.1925192,1.51175 71.5421829,1.73625 C71.9442832,1.9985 72.1903717,2.448 72.1901121,3.08425 C72.1901121,3.721 71.9178053,4.18325 71.4900059,4.45775 C71.2145841,4.63475 70.835587,4.7355 70.4064897,4.7355 C69.5607552,4.7355 69.0867493,5.2445 69.0867493,5.96725 C69.0867493,6.51375 69.3979941,6.964 70.1650737,7.391 L72.5784543,8.73225 C72.6929322,8.79625 72.8172743,8.8265 72.9408378,8.8265 C73.1918584,8.8265 73.4361298,8.701 73.5705959,8.4765 C73.7709971,8.142 73.651587,7.71425 73.3047788,7.521 L70.5098053,5.96725 C71.2200354,5.96275 71.9170265,5.847 72.5140767,5.40675 C73.2266431,4.907 73.6676814,4.07075 73.667941,3.08425 Z" id="Shape"></path>
                    <path d="M63.4988791,0.92575 C62.9285664,0.414 62.1376047,0.077 61.1135339,0.077 C60.0897227,0.077 59.2987611,0.414 58.7284484,0.92575 C57.9117876,1.625 57.5353864,2.67375 57.5353864,3.6725 L57.5353864,8.14175 C57.5353864,8.51625 57.8466313,8.816 58.2614513,8.816 C58.6505723,8.816 58.9875162,8.51625 58.9875162,8.14175 L58.9875162,6.153 L63.2395516,6.153 L63.2395516,8.14175 C63.2395516,8.51625 63.5632566,8.816 63.9653569,8.816 C64.3674572,8.816 64.6914218,8.51625 64.6914218,8.14175 L64.6914218,3.6725 C64.6911622,2.67375 64.3285192,1.625 63.4988791,0.92575 Z M63.2395516,4.7545 L58.9875162,4.7545 L58.9875162,3.735 C58.9875162,2.9985 59.2079056,2.38675 59.6094867,1.96225 C59.9853687,1.58775 60.503764,1.37525 61.1132743,1.37525 C61.7227847,1.37525 62.2541593,1.58775 62.6303009,1.96225 C63.0191622,2.38675 63.2395516,2.9985 63.2395516,3.735 L63.2395516,4.7545 Z" id="Shape" fill-rule="nonzero"></path>
                    <path d="M4.2260767,0.217 L0.865722714,0.217 C0.464920354,0.217 0.139917404,0.53 0.139917404,0.91625 L0.139917404,8.109 C0.139917404,8.4955 0.464920354,8.80825 0.865722714,8.80825 C1.26678466,8.80825 1.5920472,8.4955 1.5920472,8.109 L1.5920472,6.15325 L4.2260767,6.15325 C5.92533333,6.15325 7.30789381,4.82175 7.30789381,3.18525 C7.30789381,1.54825 5.92559292,0.217 4.2260767,0.217 Z M4.2260767,4.7545 L1.5920472,4.7545 L1.5920472,1.6155 L4.2260767,1.6155 C5.12476696,1.6155 5.85576401,2.3195 5.85576401,3.185 C5.85576401,4.0505 5.12476696,4.7545 4.2260767,4.7545 Z" id="Shape" fill-rule="nonzero"></path>
                </g>
            </g>
            <polygon id="Triangle" fill="#6D3AEC" transform="translate(166.000000, 173.000000) rotate(90.000000) translate(-166.000000, -173.000000) " points="166 170 169 176 163 176"></polygon>
            <polygon id="Triangle-Copy-16" fill="#6D3AEC" transform="translate(188.000000, 352.000000) rotate(90.000000) translate(-188.000000, -352.000000) " points="188 349 191 355 185 355"></polygon>
            <polygon id="Triangle-Copy-8" fill="#6D3AEC" points="146.5 124 150 131 143 131"></polygon>
            <polygon id="Triangle-Copy-10" fill="#6D3AEC" transform="translate(230.500000, 240.500000) rotate(180.000000) translate(-230.500000, -240.500000) " points="230.5 237 234 244 227 244"></polygon>
            <polygon id="Triangle-Copy-14" fill="#6D3AEC" transform="translate(66.000000, 420.000000) rotate(180.000000) translate(-66.000000, -420.000000) " points="66 417 69 423 63 423"></polygon>
            <polygon id="Triangle-Copy-15" fill="#6D3AEC" transform="translate(445.000000, 420.000000) rotate(180.000000) translate(-445.000000, -420.000000) " points="445 417 448 423 442 423"></polygon>
            <polygon id="Triangle-Copy-9" fill="#6D3AEC" points="362.5 124 366 131 359 131"></polygon>
            <polygon id="Triangle-Copy-13" fill="#6D3AEC" points="283.5 364 287 371 280 371"></polygon>
            <polygon id="Triangle-Copy-11" fill="#6D3AEC" transform="translate(281.500000, 240.500000) rotate(180.000000) translate(-281.500000, -240.500000) " points="281.5 237 285 244 278 244"></polygon>
            <polygon id="Triangle-Copy-2" fill="#6D3AEC" transform="translate(344.000000, 173.000000) rotate(-90.000000) translate(-344.000000, -173.000000) " points="344 170 347 176 341 176"></polygon>
            <polygon id="Triangle-Copy-17" fill="#6D3AEC" points="318 352 324 349 324 355"></polygon>
            <polygon id="Stroke-1" stroke="#6D3AEC" stroke-width="1.5" stroke-linejoin="round" points="215 215.478261 208.125 224 209.5 218.521739 204 218.521739 210.875 210 209.5 215.478261"></polygon>
            <g id="MICROENGINE-/-ARBITER" transform="translate(157.000000, 260.000000)" fill="#6D3AEC" font-family="InputSans-Regular, Input Sans" font-size="12" font-weight="normal">
                <text>
                    <tspan x="0.332727" y="14">MICROENGINE / ARBITER</tspan>
                </text>
            </g>
            <rect id="Rectangle-Copy-4" stroke="#6D3AEC" stroke-width="2" fill="#FFFFFF" x="193" y="325" width="123" height="38" rx="4"></rect>
            <rect id="Rectangle-Copy-5" stroke="#6D3AEC" stroke-width="2" fill="#FFFFFF" x="194" y="417" width="123" height="26" rx="4"></rect>
            <rect id="Rectangle-Copy-6" stroke="#6D3AEC" stroke-width="2" fill="#FFFFFF" x="194" y="450" width="123" height="26" rx="4"></rect>
            <rect id="Rectangle-Copy-7" stroke="#6D3AEC" stroke-width="2" fill="#FFFFFF" x="194" y="483" width="123" height="26" rx="4"></rect>
            <g id="MIDDLEWARE:" transform="translate(215.000000, 331.000000)" fill="#6D3AEC" font-family="InputSans-Regular, Input Sans" font-size="9" font-weight="normal">
                <text>
                    <tspan x="0.292727" y="10">MIDDLEWARE:</tspan>
                </text>
            </g>
            <g id="GLUE-+-STATE" transform="translate(214.000000, 343.000000)" fill="#6D3AEC" font-family="InputSans-Regular, Input Sans" font-size="9" font-weight="normal">
                <text>
                    <tspan x="0.867273" y="10">GLUE + STATE</tspan>
                </text>
            </g>
            <g id="ANALYSIS-BACKEND-0" transform="translate(200.000000, 424.000000)" fill="#6D3AEC" font-family="InputSans-Regular, Input Sans" font-size="8" font-weight="normal">
                <text>
                    <tspan x="0.947273" y="9">ANALYSIS BACKEND 0</tspan>
                </text>
            </g>
            <g id="ANALYSIS-BACKEND-1" transform="translate(200.000000, 457.000000)" fill="#6D3AEC" font-family="InputSans-Regular, Input Sans" font-size="8" font-weight="normal">
                <text>
                    <tspan x="0.947273" y="9">ANALYSIS BACKEND 1</tspan>
                </text>
            </g>
            <g id="ANALYSIS-BACKEND-N" transform="translate(200.000000, 490.000000)" fill="#6D3AEC" font-family="InputSans-Regular, Input Sans" font-size="8" font-weight="normal">
                <text>
                    <tspan x="0.947273" y="9">ANALYSIS BACKEND N</tspan>
                </text>
            </g>
            <path d="M228.5,363.055634 L228.5,409.000001" id="Line-2-Copy-5" stroke="#6D3AEC" stroke-width="1.5" stroke-linecap="square" transform="translate(228.500000, 386.027818) rotate(180.000000) translate(-228.500000, -386.027818) "></path>
            <polygon id="Triangle-Copy-12" fill="#6D3AEC" transform="translate(228.500000, 412.500000) rotate(180.000000) translate(-228.500000, -412.500000) " points="228.5 409 232 416 225 416"></polygon>
            <path d="M283.5,368 L283.5,413.944367" id="Line-2-Copy-6" stroke="#6D3AEC" stroke-width="1.5" stroke-linecap="square"></path>
            <g id="ARTIFACT" transform="translate(323.000000, 384.000000)" fill="#6D3AEC" font-family="InputSans-Regular, Input Sans" font-size="8" font-weight="normal">
                <text>
                    <tspan x="0" y="9">ARTIFACT</tspan>
                </text>
            </g>
            <g id="ASSERTION" transform="translate(139.000000, 384.000000)" fill="#6D3AEC" font-family="InputSans-Regular, Input Sans" font-size="8" font-weight="normal">
                <text>
                    <tspan x="0.938182" y="9">ASSERTION</tspan>
                </text>
            </g>
            <g id="ASSERTIONS" transform="translate(94.000000, 319.000000)" fill="#6D3AEC" font-family="InputSans-Regular, Input Sans" font-size="8" font-weight="normal">
                <text>
                    <tspan x="0.609091" y="9">ASSERTIONS</tspan>
                </text>
            </g>
            <g id="VERDICT" transform="translate(112.000000, 357.000000)" fill="#6D3AEC" font-family="InputSans-Regular, Input Sans" font-size="8" font-weight="normal">
                <text>
                    <tspan x="0.58" y="9">VERDICT</tspan>
                </text>
            </g>
            <g id="STAKE" transform="translate(361.000000, 357.000000)" fill="#6D3AEC" font-family="InputSans-Regular, Input Sans" font-size="8" font-weight="normal">
                <text>
                    <tspan x="0.409091" y="9">STAKE</tspan>
                </text>
            </g>
            <g id="VERDICT-CONFIDENCE" transform="translate(323.000000, 297.000000)" fill="#6D3AEC" font-family="InputSans-Regular, Input Sans" font-size="8" font-weight="normal">
                <text>
                    <tspan x="0.956364" y="9">VERDICT CONFIDENCE</tspan>
                </text>
            </g>
            <g id="INTERVAL-MARKET" transform="translate(334.000000, 308.000000)" fill="#6D3AEC" font-family="InputSans-Regular, Input Sans" font-size="8" font-weight="normal">
                <text>
                    <tspan x="0.618182" y="9">INTERVAL MARKET</tspan>
                </text>
            </g>
            <g id="CONDITIONS" transform="translate(347.000000, 319.000000)" fill="#6D3AEC" font-family="InputSans-Regular, Input Sans" font-size="8" font-weight="normal">
                <text>
                    <tspan x="0.854545" y="9">CONDITIONS</tspan>
                </text>
            </g>
            <path d="M313,395.869565 C313,397.598348 311.598348,399 309.869565,399 L298.130435,399 C296.401652,399 295,397.598348 295,395.869565 L295,384.130435 C295,382.401652 296.401652,381 298.130435,381 L309.869565,381 C311.598348,381 313,382.401652 313,384.130435 L313,395.869565 Z" id="Stroke-1" stroke="#6D3AEC" stroke-width="1.5" stroke-linecap="round" stroke-linejoin="round"></path>
            <path d="M218,395.869565 C218,397.598348 216.598348,399 214.869565,399 L203.130435,399 C201.401652,399 200,397.598348 200,395.869565 L200,384.130435 C200,382.401652 201.401652,381 203.130435,381 L214.869565,381 C216.598348,381 218,382.401652 218,384.130435 L218,395.869565 Z" id="Stroke-1-Copy" stroke="#6D3AEC" stroke-width="1.5" stroke-linecap="round" stroke-linejoin="round"></path>
            <path d="M100,462 C100,466.418 96.418,470 92,470 L62,470 C57.582,470 54,466.418 54,462 L54,432 C54,427.582 57.582,424 62,424 L92,424 C96.418,424 100,427.582 100,432 L100,462 Z" id="Stroke-1-Copy-2" stroke="#6D3AEC" stroke-width="2" fill="#DBCDF8" stroke-linecap="round" stroke-linejoin="round"></path>
            <path d="M458,462 C458,466.418 454.418,470 450,470 L420,470 C415.582,470 412,466.418 412,462 L412,432 C412,427.582 415.582,424 420,424 L450,424 C454.418,424 458,427.582 458,432 L458,462 Z" id="Stroke-1-Copy-3" stroke="#6D3AEC" stroke-width="2" fill="#DBCDF8" stroke-linecap="round" stroke-linejoin="round"></path>
            <path d="M306,390 C306,391.1048 305.1048,392 304,392 C302.8952,392 302,391.1048 302,390 C302,388.8952 302.8952,388 304,388 C305.1048,388 306,388.8952 306,390 Z" id="Stroke-3" stroke="#6D3AEC" stroke-width="1.5"></path>
            <path d="M308.658498,389.066571 L310,388.298571 L308.486377,385.700571 L307.14574,386.467714 C306.669165,386.051143 306.114747,385.731429 305.512758,385.530857 L305.512758,384 L302.485512,384 L302.485512,385.537714 C301.86709,385.742571 301.318726,386.063143 300.855125,386.468571 L299.513623,385.700571 L298,388.298571 L299.339772,389.066571 C299.216088,389.667429 299.211763,390.3 299.341502,390.933429 L298,391.700571 L299.513623,394.298571 L300.85426,393.532286 C301.330835,393.948 301.884388,394.266857 302.485512,394.468286 L302.485512,396 L305.512758,396 L305.512758,394.462286 C306.132046,394.257429 306.681274,393.936857 307.144875,393.531429 L308.486377,394.298571 L310,391.700571 L308.659363,390.934286 C308.783912,390.332571 308.788237,389.7 308.658498,389.066571 Z" id="Stroke-5" stroke="#6D3AEC" stroke-width="1.5" stroke-linecap="round" stroke-linejoin="round"></path>
            <g id="Group-4" stroke-linecap="round" stroke-linejoin="round" transform="translate(204.000000, 387.000000)" stroke="#6D3AEC" stroke-width="1.5">
                <polyline id="Stroke-1" points="10 0 2.5 7 0 4.5"></polyline>
            </g>
            <g id="Group-9" stroke-linejoin="round" transform="translate(60.000000, 429.000000)" stroke="#6D3AEC" stroke-width="2">
                <path d="M26.3084026,20 L26.3084026,17.34 C27.8473376,16.9984615 28.4675285,16.4153846 29.2893198,15.6630769 L31.6931363,16.9984615 L34,13.0015385 L31.6869806,11.6692308 C31.9455217,10.5 31.9193598,9.40923077 31.6823638,8.33076923 L33.9784549,6.99846154 L31.6485072,3.00153846 L29.2877809,4.33692308 C28.4675285,3.58461538 27.8473376,3.00307692 26.3084026,2.66 L26.3084026,0 L21.6915974,0 L21.6915974,2.66 C20.1526624,3.00307692 19.5324715,3.58461538 18.7122191,4.33692308 L16.3514928,3.00153846 L14.0215451,6.99846154 L16.3176362,8.33076923 C16.0806402,9.40923077 16.0544783,10.5 16.3130194,11.6692308 L14,13.0015385 L16.3068637,16.9984615 L18.7106802,15.6630769 C19.5324715,16.4153846 20.1526624,16.9984615 21.6915974,17.34 L21.6915974,20 L26.3084026,20 Z" id="Stroke-1" fill="#FFFFFF"></path>
                <path d="M12.3084026,37 L12.3084026,34.34 C13.8473376,33.9984615 14.4675285,33.4153846 15.2893198,32.6630769 L17.6931363,33.9984615 L20,30.0015385 L17.6869806,28.6692308 C17.9455217,27.5 17.9193598,26.4092308 17.6823638,25.3307692 L19.9784549,23.9984615 L17.6485072,20.0015385 L15.2877809,21.3369231 C14.4675285,20.5846154 13.8473376,20.0030769 12.3084026,19.66 L12.3084026,17 L7.69159741,17 L7.69159741,19.66 C6.15266236,20.0030769 5.53247153,20.5846154 4.71221914,21.3369231 L2.35149277,20.0015385 L0.0215450908,23.9984615 L2.3176362,25.3307692 C2.0806402,26.4092308 2.0544783,27.5 2.31301939,28.6692308 L0,30.0015385 L2.30686365,33.9984615 L4.71068021,32.6630769 C5.53247153,33.4153846 6.15266236,33.9984615 7.69159741,34.34 L7.69159741,37 L12.3084026,37 Z" id="Stroke-3" fill="#FFFFFF"></path>
                <path d="M27,10 C27,11.656 25.6575,13 24,13 C22.3455,13 21,11.656 21,10 C21,8.344 22.3455,7 24,7 C25.6575,7 27,8.344 27,10 Z" id="Stroke-5"></path>
                <path d="M13,27 C13,28.656 11.6575,30 10,30 C8.3455,30 7,28.656 7,27 C7,25.344 8.3455,24 10,24 C11.6575,24 13,25.344 13,27 Z" id="Stroke-7"></path>
            </g>
            <g id="Group-9-Copy" stroke-linejoin="round" transform="translate(418.000000, 429.000000)" stroke="#6D3AEC" stroke-width="2">
                <path d="M26.3084026,20 L26.3084026,17.34 C27.8473376,16.9984615 28.4675285,16.4153846 29.2893198,15.6630769 L31.6931363,16.9984615 L34,13.0015385 L31.6869806,11.6692308 C31.9455217,10.5 31.9193598,9.40923077 31.6823638,8.33076923 L33.9784549,6.99846154 L31.6485072,3.00153846 L29.2877809,4.33692308 C28.4675285,3.58461538 27.8473376,3.00307692 26.3084026,2.66 L26.3084026,0 L21.6915974,0 L21.6915974,2.66 C20.1526624,3.00307692 19.5324715,3.58461538 18.7122191,4.33692308 L16.3514928,3.00153846 L14.0215451,6.99846154 L16.3176362,8.33076923 C16.0806402,9.40923077 16.0544783,10.5 16.3130194,11.6692308 L14,13.0015385 L16.3068637,16.9984615 L18.7106802,15.6630769 C19.5324715,16.4153846 20.1526624,16.9984615 21.6915974,17.34 L21.6915974,20 L26.3084026,20 Z" id="Stroke-1" fill="#FFFFFF"></path>
                <path d="M12.3084026,37 L12.3084026,34.34 C13.8473376,33.9984615 14.4675285,33.4153846 15.2893198,32.6630769 L17.6931363,33.9984615 L20,30.0015385 L17.6869806,28.6692308 C17.9455217,27.5 17.9193598,26.4092308 17.6823638,25.3307692 L19.9784549,23.9984615 L17.6485072,20.0015385 L15.2877809,21.3369231 C14.4675285,20.5846154 13.8473376,20.0030769 12.3084026,19.66 L12.3084026,17 L7.69159741,17 L7.69159741,19.66 C6.15266236,20.0030769 5.53247153,20.5846154 4.71221914,21.3369231 L2.35149277,20.0015385 L0.0215450908,23.9984615 L2.3176362,25.3307692 C2.0806402,26.4092308 2.0544783,27.5 2.31301939,28.6692308 L0,30.0015385 L2.30686365,33.9984615 L4.71068021,32.6630769 C5.53247153,33.4153846 6.15266236,33.9984615 7.69159741,34.34 L7.69159741,37 L12.3084026,37 Z" id="Stroke-3" fill="#FFFFFF"></path>
                <path d="M27,10 C27,11.656 25.6575,13 24,13 C22.3455,13 21,11.656 21,10 C21,8.344 22.3455,7 24,7 C25.6575,7 27,8.344 27,10 Z" id="Stroke-5"></path>
                <path d="M13,27 C13,28.656 11.6575,30 10,30 C8.3455,30 7,28.656 7,27 C7,25.344 8.3455,24 10,24 C11.6575,24 13,25.344 13,27 Z" id="Stroke-7"></path>
            </g>
            <g id="VERDICT" transform="translate(56.000000, 481.000000)" fill="#6D3AEC" font-family="InputSans-Regular, Input Sans" font-size="8" font-weight="normal">
                <text>
                    <tspan x="0.107273" y="9">VERDICT</tspan>
                </text>
            </g>
            <g id="DISTILLATION" transform="translate(43.000000, 492.000000)" fill="#6D3AEC" font-family="InputSans-Regular, Input Sans" font-size="8" font-weight="normal">
                <text>
                    <tspan x="0.125455" y="9">DISTILLATION</tspan>
                </text>
            </g>
            <g id="ENGINE" transform="translate(59.000000, 503.000000)" fill="#6D3AEC" font-family="InputSans-Regular, Input Sans" font-size="8" font-weight="normal">
                <text>
                    <tspan x="0.176364" y="9">ENGINE</tspan>
                </text>
            </g>
            <g id="STAKING" transform="translate(414.000000, 481.000000)" fill="#6D3AEC" font-family="InputSans-Regular, Input Sans" font-size="8" font-weight="normal">
                <text>
                    <tspan x="0.289091" y="9">STAKING</tspan>
                </text>
            </g>
            <g id="ENGINE" transform="translate(417.000000, 492.000000)" fill="#6D3AEC" font-family="InputSans-Regular, Input Sans" font-size="8" font-weight="normal">
                <text>
                    <tspan x="0.176364" y="9">ENGINE</tspan>
                </text>
            </g>
            <path d="M188,335 L66,335" id="Line-6" stroke="#6D3AEC" stroke-width="1.5" stroke-linecap="square"></path>
            <path d="M187,352 L85,352" id="Line-6-Copy-2" stroke="#6D3AEC" stroke-width="1.5" stroke-linecap="square"></path>
            <path d="M425,352 L323,352" id="Line-6-Copy-3" stroke="#6D3AEC" stroke-width="1.5" stroke-linecap="square"></path>
            <path d="M443.921739,335 L322.078261,335" id="Line-6-Copy" stroke="#6D3AEC" stroke-width="1.5" stroke-linecap="square"></path>
        </g>
    </g>
</svg>