<?xml version="1.0" standalone="no"?>
<!DOCTYPE svg PUBLIC "-//W3C//DTD SVG 20010904//EN"
 "http://www.w3.org/TR/2001/REC-SVG-20010904/DTD/svg10.dtd">
<svg version="1.0" xmlns="http://www.w3.org/2000/svg"
 width="656.000000pt" height="656.000000pt" viewBox="0 0 656.000000 656.000000"
 preserveAspectRatio="xMidYMid meet">
<metadata>
Created by potrace 1.11, written by Peter Selinger 2001-2013
</metadata>
<g transform="translate(0.000000,656.000000) scale(0.100000,-0.100000)"
fill="#000000" stroke="none">
<path d="M2617 6405 c-95 -49 -147 -132 -147 -234 0 -102 79 -209 175 -236 17
-5 125 -9 240 -10 116 -1 216 -5 223 -9 7 -4 12 -4 12 1 0 4 80 7 177 6 98 -2
184 -3 191 -3 6 0 66 0 132 0 66 0 128 0 138 0 9 0 85 1 167 3 83 1 154 1 158
-1 5 -2 39 -6 75 -7 37 -2 81 -6 97 -8 17 -3 50 -8 75 -12 188 -27 468 -124
643 -222 33 -18 61 -33 63 -33 8 0 201 -134 249 -174 108 -88 226 -206 296
-296 24 -30 49 -59 56 -63 7 -4 13 -14 13 -22 0 -7 3 -15 8 -17 46 -20 279
-474 295 -574 1 -10 6 -24 10 -30 6 -11 36 -126 43 -169 1 -11 5 -31 8 -45 13
-57 16 -78 22 -130 3 -30 8 -68 10 -85 5 -40 4 -289 -1 -345 -14 -152 -36
-268 -76 -405 -29 -99 -125 -343 -140 -355 -4 -3 -18 -27 -32 -55 -101 -200
-327 -469 -517 -615 -24 -19 -50 -40 -57 -47 -59 -55 -374 -232 -463 -260 -19
-6 -66 -23 -105 -38 -38 -14 -70 -25 -70 -25 0 1 -7 -1 -15 -4 -26 -8 -183
-44 -225 -51 -49 -8 -72 -11 -155 -20 -36 -4 -834 -8 -1775 -9 l-1710 -2 -55
-28 c-153 -77 -187 -271 -70 -400 17 -19 55 -44 83 -57 l52 -22 1670 0 c1498
1 1794 4 1915 19 19 2 49 6 65 8 17 1 39 6 50 9 11 4 36 9 55 11 19 3 44 7 55
10 346 76 654 209 925 400 175 123 171 120 340 287 136 134 155 155 220 239
99 128 109 142 115 161 4 10 11 19 16 19 5 0 9 4 9 9 0 6 13 29 29 53 49 74
148 268 194 384 54 133 119 344 132 429 5 28 24 136 29 163 21 101 29 491 13
622 -17 148 -22 179 -52 315 -19 87 -18 82 -50 185 -38 120 -41 130 -60 175
-9 22 -24 58 -33 80 -37 89 -141 285 -190 358 -29 43 -52 82 -52 87 0 5 -3 10
-7 12 -5 2 -42 48 -83 103 -149 198 -407 435 -630 580 -175 114 -430 236 -585
282 -27 8 -56 20 -62 25 -7 6 -13 8 -13 5 0 -3 -30 3 -66 13 -99 29 -224 53
-399 77 -27 4 -399 8 -825 10 l-775 3 -48 -25z"/>
<path d="M680 5257 c-90 -13 -165 -68 -197 -146 -15 -36 -26 -77 -25 -96 5
-84 33 -147 88 -194 34 -30 46 -37 99 -57 11 -4 787 -8 1725 -9 938 -1 1725
-5 1750 -9 229 -36 452 -168 581 -343 178 -240 231 -560 137 -818 -18 -49 -62
-150 -68 -155 -3 -3 -12 -18 -20 -35 -17 -34 -22 -40 -104 -135 -83 -97 -242
-199 -374 -240 -138 -43 -135 -43 -1117 -45 -523 -1 -969 -5 -990 -9 -22 -5
-41 -7 -43 -7 -1 1 -8 -3 -15 -8 -106 -84 -139 -140 -139 -232 0 -102 53 -182
152 -231 l45 -22 940 0 c947 1 1056 3 1153 24 30 7 59 13 65 14 7 2 19 5 27 8
231 74 343 129 505 251 69 51 228 219 281 297 44 64 82 127 122 207 50 96 96
249 119 393 15 90 8 390 -11 475 -30 141 -70 253 -134 375 -96 185 -266 379
-432 495 -203 141 -451 232 -687 251 -112 10 -3369 10 -3433 1z"/>
<path d="M1558 4096 c-67 -31 -106 -68 -135 -132 -44 -96 -22 -209 57 -292 60
-63 66 -63 470 -60 l365 3 56 28 c86 41 119 79 143 161 12 40 12 79 2 121 -3
11 -5 24 -5 28 1 21 -69 102 -111 128 -47 30 -86 33 -441 34 -340 2 -357 1
-401 -19z"/>
<path d="M195 630 c-109 -23 -196 -137 -190 -248 4 -78 10 -98 42 -140 39 -52
54 -64 98 -87 39 -19 63 -20 824 -23 683 -2 790 0 831 13 210 70 234 352 38
461 l-53 29 -780 0 c-429 1 -793 -2 -810 -5z"/>
</g>
</svg>
